{"title":"Bol - 2011- Hindi (Urdu) DvDRiP 720p [ TaRa ].mkv","uid":15135938,"size":1451005927,"categoryP":"video","categoryS":"movies_dvdr","magnet":"?xt=urn:btih:4f594231df6f78f12e204944e39e84b78714496d&amp;dn=Bol+-+2011-+Hindi+%28Urdu%29+DvDRiP+720p+%5B+TaRa+%5D.mkv&amp;tr=udp%3A%2F%2Ftracker.leechers-paradise.org%3A6969&amp;tr=udp%3A%2F%2Fzer0day.ch%3A1337&amp;tr=udp%3A%2F%2Fopen.demonii.com%3A1337&amp;tr=udp%3A%2F%2Ftracker.coppersurfer.tk%3A6969&amp;tr=udp%3A%2F%2Fexodus.desync.com%3A6969","seeders":0,"leechers":0,"uploader":"MdTaRa","files":1,"time":1467175916,"description":"==================================================================\r\nGeneral\r\nComplete name               :Bol - 2011- Hindi (Urdu) DvDRiP 720p [ TaRa ].mkv\r\nFormat                      : Matroska\r\nFormat version              : Version 4 / Version 2\r\nFile size                   : 1.35 GiB\r\nDuration                    : 2h 31mn\r\nOverall bit rate mode       : Variable\r\nOverall bit rate            : 1 276 Kbps\r\n===================================================================\r\nVideo\r\nID                          : 1\r\nFormat                      : AVC\r\nFormat/Info                 : Advanced Video Codec\r\nFormat profile              :   \r\nFormat settings, CABAC      : Yes\r\nFormat settings, ReFrames   : 3 frames\r\nCodec ID                    : V_MPEG4/ISO/AVC\r\nDuration                    : 2h 31mn\r\nBit rate mode               : Variable\r\nBit rate                    : 1 180 Kbps\r\nMaximum bit rate            : 14.0 Mbps\r\nWidth                       : 1 280 pixels\r\nHeight                      : 504 pixels\r\nDisplay aspect ratio        : 2.540\r\nFrame rate mode             : Constant\r\nFrame rate                  : 23.976 (24000/1001) fps\r\nColor space                 : YUV\r\nChroma subsampling          : 4:2:0\r\nBit depth                   : 8 bits\r\nScan type                   : Progressive\r\nBits/(Pixel*Frame)          : 0.076\r\nStream size                 : 1.25 GiB (92%)\r\nTitle                       : = __ TaRa ~ DDR __ =\r\nLanguage                    : Urdu\r\nDefault                     : Yes\r\nForced                      : No\r\n===================================================================\r\nAudio\r\nID                          : 2\r\nFormat                      : AAC\r\nFormat/Info                 : Advanced Audio Codec\r\nFormat profile              : LC\r\nCodec ID                    : A_AAC\r\nDuration                    : 2h 31mn\r\nBit rate                    : 94.0 Kbps\r\nChannel(s)                  : 2 channels\r\nChannel positions           : Front: L R\r\nSampling rate               : 44.1 KHz\r\nFrame rate                  : 43.066 fps (1024 spf)\r\nCompression mode            : Lossy\r\nStream size                 : 102 MiB (7%)\r\nTitle                       : = __ TaRa ~ DDR __ =\r\nLanguage                    : Urdu\r\nDefault                     : Yes\r\nForced                      : No\r\n=================================================================== \nhttp://picoolio.net/image/I8HO","torrent":{"xt":"urn:btih:4f594231df6f78f12e204944e39e84b78714496d","amp;dn":"Bol+-+2011-+Hindi+%28Urdu%29+DvDRiP+720p+%5B+TaRa+%5D.mkv","amp;tr":["udp%3A%2F%2Ftracker.leechers-paradise.org%3A6969","udp%3A%2F%2Fzer0day.ch%3A1337","udp%3A%2F%2Fopen.demonii.com%3A1337","udp%3A%2F%2Ftracker.coppersurfer.tk%3A6969","udp%3A%2F%2Fexodus.desync.com%3A6969"],"infoHash":"4f594231df6f78f12e204944e39e84b78714496d","infoHashBuffer":{"type":"Buffer","data":[79,89,66,49,223,111,120,241,46,32,73,68,227,158,132,183,135,20,73,109]},"announce":[],"urlList":[]}}